<?xml version="1.0" encoding="UTF-8" standalone="no"?>
<svg width="290px" height="48px" viewBox="0 0 290 48" version="1.1" xmlns="http://www.w3.org/2000/svg" xmlns:xlink="http://www.w3.org/1999/xlink" xmlns:sketch="http://www.bohemiancoding.com/sketch/ns">
    <!-- Generator: Sketch 3.4.3 (16044) - http://www.bohemiancoding.com/sketch -->
    <title>[keep-size]</title>
    <desc>Created with Sketch.</desc>
    <defs></defs>
    <g id="Page-1" stroke="none" stroke-width="1" fill="none" fill-rule="evenodd" sketch:type="MSPage">
        <g id="spotahome-logo--green" sketch:type="MSLayerGroup" fill="#FFFFFF">
            <g id="Page-1" sketch:type="MSShapeGroup">
                <g id="logo-large-sah">
                    <path d="M270.09631,0 L270.09631,6.707477 L283.302777,6.707477 L283.302777,41.2917077 L270.09631,41.2917077 L270.09631,48 L290,48 L290,0 L270.09631,0 L270.09631,0 Z M19.9028767,0 L19.9028767,6.707477 L6.69640903,6.707477 L6.69640903,41.2917077 L19.9028767,41.2917077 L19.9028767,48 L0,48 L0,0 L19.9028767,0 L19.9028767,0 Z M237.344205,12.6339776 L254.750474,12.6339776 L254.750474,17.1588953 L242.387873,17.1588953 L242.387873,21.8493189 L253.266994,21.8493189 L253.266994,26.3742365 L242.387873,26.3742365 L242.387873,31.2301661 L254.915667,31.2301661 L254.915667,35.7542684 L237.344205,35.7542684 L237.344205,12.6339776 L237.344205,12.6339776 Z M208.72436,12.6339776 L214.196878,12.6339776 L220.262625,22.4110609 L226.328372,12.6339776 L231.80089,12.6339776 L231.80089,35.7542684 L226.757222,35.7542684 L226.757222,20.6597955 L220.262625,30.5355301 L220.130796,30.5355301 L213.702113,20.7592622 L213.702113,35.7542684 L208.72436,35.7542684 L208.72436,12.6339776 L208.72436,12.6339776 Z M198.894904,24.2603254 L198.894904,24.1942861 C198.894904,20.2311105 195.993859,16.927513 191.905542,16.927513 C187.818039,16.927513 184.982908,20.1650712 184.982908,24.1282468 L184.982908,24.1942861 C184.982908,28.158277 187.883953,31.4610592 191.971456,31.4610592 C196.059773,31.4610592 198.894904,28.2243163 198.894904,24.2603254 L198.894904,24.2603254 Z M179.675583,24.2603254 L179.675583,24.1942861 C179.675583,17.6213337 184.85108,12.2370894 191.971456,12.2370894 C199.092647,12.2370894 204.202229,17.5552944 204.202229,24.1282468 L204.202229,24.1942861 C204.202229,30.7672385 199.026732,36.1506675 191.905542,36.1506675 C184.785165,36.1506675 179.675583,30.8332778 179.675583,24.2603254 L179.675583,24.2603254 Z M155.638656,12.6339776 L160.714875,12.6339776 L160.714875,21.7832795 L170.077966,21.7832795 L170.077966,12.6339776 L175.154185,12.6339776 L175.154185,35.7542684 L170.077966,35.7542684 L170.077966,26.4737032 L160.714875,26.4737032 L160.714875,35.7542684 L155.638656,35.7542684 L155.638656,12.6339776 L155.638656,12.6339776 Z M144.238486,27.2990318 L138.997075,15.5073411 L133.7223,27.2990318 L144.238486,27.2990318 L144.238486,27.2990318 Z M137.809803,12.4687162 L140.249447,12.4687162 L150.765633,35.754513 L147.963867,35.754513 L145.260565,29.643836 L132.700221,29.643836 L129.963555,35.754513 L127.293617,35.754513 L137.809803,12.4687162 L137.809803,12.4687162 Z M113.597837,17.3239121 L106.575925,17.3239121 L106.575925,12.6343038 L125.696781,12.6343038 L125.696781,17.3239121 L118.674869,17.3239121 L118.674869,35.7545946 L113.597837,35.7545946 L113.597837,17.3239121 L113.597837,17.3239121 Z M99.3849145,24.2603254 L99.3849145,24.1942861 C99.3849145,20.2311105 96.4838696,16.927513 92.3963666,16.927513 C88.3080498,16.927513 85.4729193,20.1650712 85.4729193,24.1282468 L85.4729193,24.1942861 C85.4729193,28.158277 88.3739641,31.4610592 92.4622809,31.4610592 C96.549784,31.4610592 99.3849145,28.2243163 99.3849145,24.2603254 L99.3849145,24.2603254 Z M80.1647802,24.2603254 L80.1647802,24.1942861 C80.1647802,17.6213337 85.3410906,12.2370894 92.4622809,12.2370894 C99.5826575,12.2370894 104.69224,17.5552944 104.69224,24.1282468 L104.69224,24.1942861 C104.69224,30.7672385 99.5167432,36.1506675 92.3963666,36.1506675 C85.2751762,36.1506675 80.1647802,30.8332778 80.1647802,24.2603254 L80.1647802,24.2603254 Z M68.2606498,24.2934266 C70.7987589,24.2934266 72.2822385,22.7737066 72.2822385,20.7925264 L72.2822385,20.7264871 C72.2822385,18.446907 70.7002943,17.2255868 68.1613714,17.2255868 L64.2390611,17.2255868 L64.2390611,24.2934266 L68.2606498,24.2934266 L68.2606498,24.2934266 Z M59.1612154,12.6338146 L68.5902216,12.6338146 C74.0952899,12.6338146 77.4251848,15.9039848 77.4251848,20.6270204 L77.4251848,20.6930598 C77.4251848,26.0438768 73.2717674,28.8183443 68.0954571,28.8183443 L64.2390611,28.8183443 L64.2390611,35.7549207 L59.1612154,35.7549207 L59.1612154,12.6338146 L59.1612154,12.6338146 Z M36.4768349,32.3858545 L39.4771581,28.7854877 C41.5538668,30.5025104 43.7298539,31.5925672 46.3672414,31.5925672 C48.4439501,31.5925672 49.6963226,30.7674831 49.6963226,29.413269 L49.6963226,29.3464144 C49.6963226,28.0582396 48.9053505,27.3978462 45.0481408,26.4072562 C40.3999589,25.2177328 37.3996357,23.929558 37.3996357,19.3394164 L37.3996357,19.273377 C37.3996357,15.0778408 40.7628947,12.3033733 45.4769909,12.3033733 C48.8394361,12.3033733 51.707117,13.360818 54.0482968,15.2433468 L51.4109093,19.0744437 C49.3667509,17.6541903 47.3559565,16.7956789 45.4110765,16.7956789 C43.4653828,16.7956789 42.4441173,17.6876176 42.4441173,18.8102864 L42.4441173,18.8763257 C42.4441173,20.3960458 43.4328325,20.8909332 47.4218709,21.9149506 C52.1034168,23.137086 54.7408043,24.8214968 54.7408043,28.851527 L54.7408043,28.9175663 C54.7408043,33.5085233 51.2457165,36.0848728 46.267963,36.0848728 C42.773689,36.0848728 39.246051,34.8627374 36.4768349,32.3858545 L36.4768349,32.3858545 Z" id="[keep-size]"></path>
                </g>
            </g>
        </g>
    </g>
</svg>